<svg xmlns="http://www.w3.org/2000/svg" width="225.98" height="409.113" viewBox="0 0 225.98 409.113"><defs><style>.a{fill:#405cd2;}.b{fill:#263238;}.c,.d{fill:#fff;}.c,.e{opacity:0.2;}.e,.f{fill:#40d2ac;}</style></defs><g transform="translate(-222.893 -109.15)"><g transform="translate(222.893 109.15)"><g transform="translate(8.211)"><path class="a" d="M428.392,109.15H273.913a21.3,21.3,0,0,0-20.888,19.619L229.052,498.646A18.213,18.213,0,0,0,247.4,518.263H401.876a21.3,21.3,0,0,0,20.89-19.617L439.995,232.8a4,4,0,0,0,2.679-3.455l3.083-47.563a3.407,3.407,0,0,0-2.231-3.456l3.212-49.56A18.213,18.213,0,0,0,428.392,109.15Z" transform="translate(-229.01 -109.15)"/><path class="a" d="M238.416,187.338h3.024a3.782,3.782,0,0,0,3.707-3.482L246.435,164a3.234,3.234,0,0,0-3.258-3.482h-3.023A3.78,3.78,0,0,0,236.447,164l-1.287,19.855A3.232,3.232,0,0,0,238.416,187.338Z" transform="translate(-226.908 -91.568)"/><path class="a" d="M236.7,213.754h3.023a3.781,3.781,0,0,0,3.709-3.482l1.287-19.853a3.235,3.235,0,0,0-3.258-3.483h-3.023a3.783,3.783,0,0,0-3.709,3.483l-1.286,19.853A3.232,3.232,0,0,0,236.7,213.754Z" transform="translate(-227.494 -82.527)"/></g><path class="b" d="M395.759,518.263H241.281a18.213,18.213,0,0,1-18.346-19.617l23.973-369.878A21.3,21.3,0,0,1,267.8,109.15H422.275a18.213,18.213,0,0,1,18.346,19.619L416.648,498.646A21.3,21.3,0,0,1,395.759,518.263Z" transform="translate(-222.893 -109.15)"/><ellipse class="c" cx="13.634" cy="12.779" rx="13.634" ry="12.779" transform="translate(78.559 384.472) rotate(-44.073)"/><path class="d" d="M407.98,461.28H232.363A4.371,4.371,0,0,1,228,456.625l20.558-317.2a4.372,4.372,0,0,1,4.362-4.089H428.538a4.371,4.371,0,0,1,4.362,4.654l-20.559,317.2A4.371,4.371,0,0,1,407.98,461.28Z" transform="translate(-221.148 -100.189)"/><ellipse class="e" cx="49.498" cy="46.392" rx="49.498" ry="46.392" transform="translate(37.729 203.819) rotate(-44.073)"/><path class="e" d="M315.637,352.964c-40.767,0-71.783-33.166-69.141-73.933S284.454,205.1,325.221,205.1s71.783,33.166,69.14,73.933S356.4,352.964,315.637,352.964Zm9.5-146.524c-40.026,0-74.7,32.565-77.3,72.591s27.86,72.591,67.886,72.591,74.7-32.565,77.294-72.591S365.16,206.44,325.134,206.44Z" transform="translate(-214.869 -76.311)"/><path class="f" d="M303.166,301.041l-4-7.758c-8.722-16.929-28.825-32.06-35.834-36.461l6.631-9.922c8.3,5.212,24.906,18.114,35.33,33.434,19.248-22.8,46.472-46.321,82.924-71.673l6.215,9.368c-38.95,27.088-66.94,51.856-85.572,75.72Z" transform="translate(-209.052 -75.091)"/><ellipse class="c" cx="5.523" cy="5.176" rx="5.523" ry="5.176" transform="matrix(0.718, -0.696, 0.696, 0.718, 81.024, 17.509)"/><path class="c" d="M304.37,118.12h44.419a4.963,4.963,0,0,1,5,5.346h0a5.8,5.8,0,0,1-5.693,5.346H303.677a4.964,4.964,0,0,1-5-5.346h0A5.8,5.8,0,0,1,304.37,118.12Z" transform="translate(-196.96 -106.08)"/></g></g></svg>