<svg xmlns="http://www.w3.org/2000/svg" xmlns:xlink="http://www.w3.org/1999/xlink" width="136.96" height="29.175" viewBox="0 0 136.96 29.175"><defs><style>.a,.b{fill:none;}.a{clip-rule:evenodd;}.c{clip-path:url(#a);}.d{clip-path:url(#b);}.e{fill:#405cd2;}.f{clip-path:url(#c);}.g{clip-path:url(#e);}.h{fill:#40d2ac;}.i{clip-path:url(#g);}.j{clip-path:url(#i);}.k{clip-path:url(#k);}.l{fill:#0d3b66;}</style><clipPath id="a"><path class="a" d="M1052.967,870l-.012,24.465-2.743,4.44H1040Z" transform="translate(-1040 -870)"/></clipPath><clipPath id="b"><rect class="b" width="494" height="1642" transform="translate(0.173 0.222)"/></clipPath><clipPath id="c"><path class="a" d="M1128.512,910v15.458L1125,928.1V914.692Z" transform="translate(-1125 -910)"/></clipPath><clipPath id="e"><path class="a" d="M1088,870l10,7.976V898.9h-10Z" transform="translate(-1088 -870)"/></clipPath><clipPath id="g"><path class="a" d="M1138,910l10,7.9V928.1h-10Z" transform="translate(-1138 -910)"/></clipPath><clipPath id="i"><path class="a" d="M1188,947l10,8.1-2.166-.035H1188Z" transform="translate(-1188 -947)"/></clipPath><clipPath id="k"><path class="b" d="M1322.936,900.364a10.585,10.585,0,0,0,1.842-.193,8.743,8.743,0,0,0,1.8-.5l-.465-2.119a6.71,6.71,0,0,1-1.086.308,5.282,5.282,0,0,1-1.009.116,2.327,2.327,0,0,1-1.745-.636,2.4,2.4,0,0,1-.621-1.753V872h-2.638v24.472a3.825,3.825,0,0,0,1.047,2.871A3.935,3.935,0,0,0,1322.936,900.364Zm-15.959-2.161a6.857,6.857,0,0,1-2.881-.617,7.173,7.173,0,0,1-2.352-1.717,8.517,8.517,0,0,1-1.588-2.547,8.276,8.276,0,0,1-.588-3.145,8.572,8.572,0,0,1,.588-3.184,8.438,8.438,0,0,1,1.607-2.6,7.572,7.572,0,0,1,2.352-1.756,6.553,6.553,0,0,1,2.862-.637,6.682,6.682,0,0,1,2.882.637,7.643,7.643,0,0,1,2.371,1.737,8.191,8.191,0,0,1,1.607,2.586,8.755,8.755,0,0,1,0,6.31,8.247,8.247,0,0,1-1.607,2.566,7.645,7.645,0,0,1-2.371,1.737A6.684,6.684,0,0,1,1306.977,898.2Zm.135,2.431a9.607,9.607,0,0,0,4.041-.839,9.82,9.82,0,0,0,3.171-2.283,10.366,10.366,0,0,0,2.068-3.356,11.106,11.106,0,0,0,.735-4.019,10.961,10.961,0,0,0-.754-4.058,10.655,10.655,0,0,0-2.088-3.356,10.078,10.078,0,0,0-3.171-2.3,9.334,9.334,0,0,0-4-.858,9.2,9.2,0,0,0-3.982.858,10.144,10.144,0,0,0-3.151,2.3,10.65,10.65,0,0,0-2.088,3.356,10.959,10.959,0,0,0-.754,4.058,11.108,11.108,0,0,0,.735,4.019,10.372,10.372,0,0,0,2.069,3.356,9.88,9.88,0,0,0,3.151,2.283A9.475,9.475,0,0,0,1307.112,900.635Zm-20.666-2.431a6.856,6.856,0,0,1-2.881-.617,7.173,7.173,0,0,1-2.352-1.717,8.514,8.514,0,0,1-1.588-2.547,8.278,8.278,0,0,1-.588-3.145,8.574,8.574,0,0,1,.588-3.184,8.435,8.435,0,0,1,1.607-2.6,7.573,7.573,0,0,1,2.352-1.756,6.553,6.553,0,0,1,2.861-.637,6.682,6.682,0,0,1,2.881.637,7.645,7.645,0,0,1,2.372,1.737,8.2,8.2,0,0,1,1.607,2.586,8.755,8.755,0,0,1,0,6.31,8.251,8.251,0,0,1-1.607,2.566,7.648,7.648,0,0,1-2.372,1.737A6.683,6.683,0,0,1,1286.446,898.2Zm.135,2.431a9.607,9.607,0,0,0,4.041-.839,9.824,9.824,0,0,0,3.171-2.283,10.372,10.372,0,0,0,2.068-3.356,11.108,11.108,0,0,0,.735-4.019,10.961,10.961,0,0,0-.754-4.058,10.648,10.648,0,0,0-2.088-3.356,10.078,10.078,0,0,0-3.171-2.3,9.333,9.333,0,0,0-4-.858,9.2,9.2,0,0,0-3.982.858,10.14,10.14,0,0,0-3.151,2.3,10.65,10.65,0,0,0-2.088,3.356,10.961,10.961,0,0,0-.754,4.058,11.108,11.108,0,0,0,.735,4.019,10.37,10.37,0,0,0,2.068,3.356,9.883,9.883,0,0,0,3.151,2.283A9.476,9.476,0,0,0,1286.582,900.635Zm-38.951-.27V888.17a8.716,8.716,0,0,1,2.554-4.129,5.975,5.975,0,0,1,4.063-1.567,3.736,3.736,0,0,1,3.327,1.606,9.465,9.465,0,0,1,1.083,5.161v11.124h2.631V888.208a8.7,8.7,0,0,1,1.006-2.313,8.14,8.14,0,0,1,1.528-1.816,6.736,6.736,0,0,1,1.9-1.185,5.706,5.706,0,0,1,2.186-.42,3.766,3.766,0,0,1,3.327,1.644,9.229,9.229,0,0,1,1.122,5.123v11.124h2.631V888.705a17.49,17.49,0,0,0-.329-3.536,8.09,8.09,0,0,0-1.045-2.714,4.854,4.854,0,0,0-1.9-1.74,6.208,6.208,0,0,0-2.882-.612q-4.952,0-7.777,5.122a6.132,6.132,0,0,0-1.877-3.708,5.77,5.77,0,0,0-4.082-1.414,8.116,8.116,0,0,0-4.449,1.281,9.453,9.453,0,0,0-3.25,3.574v-4.511H1245v19.916Z" transform="translate(-1245 -872)"/></clipPath></defs><g transform="translate(-1040 -870)"><g transform="translate(1040 870)"><g transform="translate(0 0)"><g class="c"><g transform="translate(-281.173 -235.222)"><g class="d" transform="translate(0 0)"><rect class="e" width="16" height="33" transform="translate(279.173 233.222)"/></g></g></g></g><g transform="translate(22.962 10.805)"><g class="f"><g transform="translate(-304.135 -246.028)"><g class="d" transform="translate(0 0)"><rect class="e" width="7" height="21" transform="translate(302.173 245.222)"/></g></g></g></g><g transform="translate(12.967 0)"><g class="g"><g transform="translate(-294.139 -235.222)"><g class="d" transform="translate(0 0)"><rect class="h" width="13" height="33" transform="translate(293.173 233.222)"/></g></g></g></g><g transform="translate(26.473 10.805)"><g class="i"><g transform="translate(-307.646 -246.028)"><g class="d" transform="translate(0 0)"><rect class="h" width="12" height="21" transform="translate(306.173 245.222)"/></g></g></g></g><g transform="translate(39.98 20.801)"><g class="j"><g transform="translate(-321.153 -256.023)"><g class="d" transform="translate(0 0)"><rect class="h" width="13" height="11" transform="translate(319.173 255.222)"/></g></g></g></g></g><g transform="translate(1095.378 870.54)"><g class="k" transform="translate(0 0)"><g transform="translate(-336.551 -235.763)"><g class="d" transform="translate(0 0)"><rect class="l" width="84" height="32" transform="translate(335.173 234.222)"/></g></g></g></g></g></svg>