<svg xmlns="http://www.w3.org/2000/svg" width="20" height="20" viewBox="0 0 20 20"><defs><style>.a,.b{fill:#40d2ac;}.a{opacity:0;}</style></defs><rect class="a" width="20" height="20" transform="translate(20 20) rotate(180)"/><path class="b" d="M15.5,3H5.5A2.5,2.5,0,0,0,3,5.5v10A2.5,2.5,0,0,0,5.5,18h10A2.5,2.5,0,0,0,18,15.5V5.5A2.5,2.5,0,0,0,15.5,3ZM14.083,8.508l-3.808,5a.836.836,0,0,1-1.317.008L6.925,10.925A.834.834,0,0,1,8.242,9.9L9.6,11.633l3.15-4.167a.838.838,0,0,1,1.333,1.017Z" transform="translate(-0.5 -0.5)"/></svg>