<svg xmlns="http://www.w3.org/2000/svg" width="18" height="18" viewBox="0 0 18 18"><defs><style>.a,.b{fill:#151b30;}.a{opacity:0;}</style></defs><g transform="translate(0.268 0.268)"><rect class="a" width="18" height="18" transform="translate(17.732 17.732) rotate(180)"/><path class="b" d="M9.277,2a7.277,7.277,0,1,0,7.277,7.277A7.277,7.277,0,0,0,9.277,2Zm0,13.1A5.822,5.822,0,1,1,15.1,9.277,5.822,5.822,0,0,1,9.277,15.1Z" transform="translate(-0.545 -0.545)"/><circle class="b" cx="1" cy="1" r="1" transform="translate(7.732 4.732)"/><path class="b" d="M11.728,10a.728.728,0,0,0-.728.728v3.639a.728.728,0,1,0,1.455,0V10.728A.728.728,0,0,0,11.728,10Z" transform="translate(-2.995 -2.723)"/></g></svg>