<svg xmlns="http://www.w3.org/2000/svg" width="18" height="18" viewBox="0 0 18 18"><defs><style>.a,.b{fill:#fea101;}.a{opacity:0;}</style></defs><g transform="translate(-0.013 -0.013)"><rect class="a" width="18" height="18" transform="translate(0.013 0.013)"/><path class="b" d="M15.565,6.523,13.507,4.465a1.5,1.5,0,0,0-2-.053l-6.76,6.76a1.5,1.5,0,0,0-.428.909L4,15.213a.749.749,0,0,0,.751.819h.068l3.132-.285a1.5,1.5,0,0,0,.909-.428l6.76-6.76a1.442,1.442,0,0,0-.053-2.035ZM13.012,9.031,11,7.019l1.465-1.5,2.05,2.05Z" transform="translate(-0.995 -1.01)"/></g></svg>