<svg xmlns="http://www.w3.org/2000/svg" xmlns:xlink="http://www.w3.org/1999/xlink" width="1920" height="1080" viewBox="0 0 1920 1080"><defs><style>.a{fill:#fff;}.b{fill:none;stroke:#feba01;stroke-width:2px;}.c{clip-path:url(#a);}.d{clip-path:url(#b);}</style><clipPath id="a"><rect class="a" width="1920" height="1080"/></clipPath><clipPath id="b"><rect class="b" width="922.992" height="1031.4"/></clipPath></defs><g class="c" transform="translate(1920 1080) rotate(180)"><g transform="translate(-242.003 -871.755) rotate(30)"><g class="d" transform="translate(0 -0.001)"><path class="b" d="M622.951,766.6a10.021,10.021,0,0,1-4.94-1.169,10.691,10.691,0,0,1-2.787-2.265,8.682,8.682,0,0,1-1.825-3.1c-.556-1.76-.934-3.57-1.3-5.32l-.2-.93a277.1,277.1,0,0,0-7.575-28.414c-.968-2.947-2.065-6.289-.812-9.465a13.75,13.75,0,0,1,.981-1.894c.252-.43.512-.875.727-1.324,1.2-2.516.988-5.367.622-7.825-.365-2.506-.334-5.21,2.661-6.271a11.362,11.362,0,0,1,4.315-.4l.518.017c6.176.2,12.3-1.126,18.771-2.535,2.664-.579,5.417-1.179,8.191-1.666l1.35-.241c1.184-.214,2.408-.435,3.608-.609a17.7,17.7,0,0,1,5.125-.183,7.983,7.983,0,0,1,4.852,2.453,8.872,8.872,0,0,1,1.987,5.542,31.061,31.061,0,0,1-.046,3.239c-.038.794-.079,1.615-.07,2.426a21.289,21.289,0,0,0,3.018,10.618c.342.559.713,1.1,1.083,1.645a12.972,12.972,0,0,1,2.585,5.46,10.6,10.6,0,0,1-.6,4.751c-2.378,7.264-7.867,13.008-12.825,17.822-5.319,5.164-11.068,9.9-15.481,13.439a49.991,49.991,0,0,1-7.117,5.057,8.488,8.488,0,0,1-3.05,1.023,14.5,14.5,0,0,1-1.773.112m-11.46-67.685a8.172,8.172,0,0,0-2.745.386c-2.5.887-2.531,3.164-2.191,5.492.381,2.563.6,5.548-.685,8.238h0c-.228.475-.5.934-.756,1.376a13.041,13.041,0,0,0-.932,1.794c-1.16,2.936-.105,6.146.825,8.979a277.87,277.87,0,0,1,7.6,28.488l.2.932c.362,1.733.737,3.525,1.282,5.252a7.981,7.981,0,0,0,1.678,2.836,10,10,0,0,0,2.6,2.116,10.256,10.256,0,0,0,6.276.971,7.8,7.8,0,0,0,2.792-.94,49.386,49.386,0,0,0,7.011-4.987c4.4-3.534,10.132-8.252,15.43-13.4,4.9-4.754,10.316-10.421,12.643-17.529a9.924,9.924,0,0,0,.57-4.43,12.27,12.27,0,0,0-2.468-5.153c-.377-.553-.754-1.106-1.1-1.674a22.055,22.055,0,0,1-3.124-10.986c-.009-.833.033-1.665.073-2.469a30.835,30.835,0,0,0,.046-3.164,8.29,8.29,0,0,0-1.808-5.106,7.257,7.257,0,0,0-4.418-2.22,17.043,17.043,0,0,0-4.92.184c-1.188.173-2.4.392-3.583.6l-1.353.242c-2.76.486-5.507,1.083-8.163,1.661-6.516,1.418-12.673,2.755-18.946,2.552l-.521-.018c-.432-.016-.868-.033-1.3-.033" transform="translate(-122.658 -140.956)"/><path class="b" d="M597.67,803.576c-4.7,0-9.7-2.594-13.53-7.076a33.858,33.858,0,0,1-4.65-7.286,49.576,49.576,0,0,1-2.932-7.591c-.734-2.5-1.451-5-2.167-7.5-.983-3.429-2-6.972-3.041-10.433a489.892,489.892,0,0,0-33.005-82.113c-4.134-8.053-9.279-18.077-6.1-27.441a33.5,33.5,0,0,1,2.632-5.486c.711-1.277,1.447-2.6,2.034-3.953,3.465-8.065,1.623-17.322-.368-24.487-1.974-7.125-3.042-15.645,6.3-18.3,4.146-1.18,8.53-.533,12.768.092.672.1,1.345.2,2.013.289,24.291,3.332,48.541-3.728,72-10.554q4.632-1.349,9.269-2.675l.346-.1c4.782-1.357,9.727-2.76,14.58-3.981,4.891-1.232,10.116-2.4,15.459-2.073,5.884.371,11.176,2.725,14.518,6.458,4.395,4.9,5.3,11.756,5.294,16.638a90.674,90.674,0,0,1-.637,9.129c-.277,2.676-.566,5.444-.624,8.186a52.41,52.41,0,0,0,10.534,32.284c1.328,1.744,2.809,3.461,4.241,5.121,4.034,4.675,8.206,9.509,9.542,15.615,1.146,5.232-.071,10.641-1.085,14.255-5.9,21-20.437,38.041-32.447,50.539-14.628,15.223-30.52,28.622-48.281,43.313-6.959,5.756-14.154,11.707-22.26,16.13a23.479,23.479,0,0,1-9.453,2.957q-.47.036-.943.036m-49.68-201.6a18.07,18.07,0,0,0-4.955.628c-8.687,2.469-7.811,10.191-5.808,17.419,2.023,7.278,3.89,16.691.335,24.962h0A45.168,45.168,0,0,1,535.5,649a32.978,32.978,0,0,0-2.58,5.367c-3.076,9.077,1.991,18.95,6.063,26.883a490.606,490.606,0,0,1,33.054,82.233c1.044,3.465,2.06,7.012,3.044,10.442q1.073,3.745,2.167,7.492a48.726,48.726,0,0,0,2.889,7.479,33.1,33.1,0,0,0,4.549,7.133c3.945,4.611,9.128,7.157,13.874,6.792a22.769,22.769,0,0,0,9.164-2.872c8.046-4.389,15.215-10.318,22.147-16.052,17.744-14.676,33.619-28.062,48.221-43.257,11.95-12.438,26.419-29.389,32.273-50.237.994-3.54,2.187-8.832,1.075-13.906-1.3-5.93-5.409-10.694-9.384-15.3-1.439-1.668-2.928-3.393-4.27-5.155a53.147,53.147,0,0,1-10.68-32.734c.06-2.771.348-5.553.629-8.244a90.571,90.571,0,0,0,.633-9.057c.01-4.757-.868-11.423-5.11-16.159-3.219-3.593-8.332-5.86-14.031-6.219-5.247-.325-10.4.834-15.239,2.052s-9.782,2.62-14.559,3.976l-.345.1c-3.09.878-6.178,1.776-9.264,2.675-23.528,6.846-47.855,13.925-72.294,10.576-.671-.092-1.345-.191-2.02-.291a52.1,52.1,0,0,0-7.513-.74" transform="translate(-108.073 -118.57)"/><path class="b" d="M577.363,833.181c-7.263,0-14.8-4.383-20.242-11.788a51.864,51.864,0,0,1-6.168-11.3,111.119,111.119,0,0,1-3.85-11.224c-3.154-10.977-5.678-19.395-8.184-27.3A707.558,707.558,0,0,0,485.56,646.484c-6.343-11.6-15.03-27.491-10.322-41.8a49.446,49.446,0,0,1,3.948-8.343,66.3,66.3,0,0,0,3.085-6.073c5.272-12.482,2.144-26.777-1.169-37.836-1.983-6.623-3.826-15-.457-21.056,1.832-3.294,5.084-5.593,9.664-6.834,6.316-1.729,13.021-.618,19.506.46,1.078.179,2.153.357,3.223.523,38.683,5.974,77-5.8,114.06-17.184q5.348-1.643,10.693-3.271c7.369-2.233,15.207-4.586,22.9-6.663,7.509-2.028,15.535-3.98,23.721-3.575,9.021.44,17.125,3.961,22.235,9.658,6.723,7.493,8.028,18,7.938,25.5a138.5,138.5,0,0,1-1.1,13.872c-.472,4.174-.962,8.49-1.075,12.769a78.146,78.146,0,0,0,16.558,49.643c2.117,2.688,4.481,5.328,6.765,7.88,6.358,7.1,12.931,14.443,15.1,23.763,1.826,7.841.168,15.794-1.48,21.847-8.79,32.274-30.348,57.949-48.147,76.712-23.659,24.942-50.679,47.4-74.517,67.207-10.746,8.93-21.857,18.165-34.374,24.986-5.471,2.982-10.1,4.412-14.583,4.505-.123,0-.247,0-.37,0m-79.8-308.818a26.6,26.6,0,0,0-7.064.873c-4.388,1.189-7.492,3.373-9.227,6.49-3.238,5.82-1.424,14.014.517,20.5,3.348,11.174,6.5,25.627,1.142,38.321h0a66.785,66.785,0,0,1-3.118,6.14,48.837,48.837,0,0,0-3.894,8.22c-4.611,14.012,3.64,29.1,10.269,41.23A708.19,708.19,0,0,1,539.6,771.353c2.509,7.908,5.035,16.332,8.19,27.314a110,110,0,0,0,3.823,11.15,51.2,51.2,0,0,0,6.082,11.151c5.394,7.343,12.913,11.629,20.02,11.491,4.36-.089,8.889-1.494,14.254-4.418,12.456-6.787,23.54-16,34.259-24.906,23.824-19.8,50.826-42.24,74.456-67.15,17.74-18.7,39.226-44.288,47.974-76.407,1.627-5.972,3.264-13.812,1.474-21.5-2.127-9.141-8.638-16.413-14.935-23.447-2.292-2.561-4.663-5.209-6.795-7.914a78.887,78.887,0,0,1-16.712-50.106c.115-4.31.606-8.641,1.081-12.83a138.023,138.023,0,0,0,1.095-13.8c.088-7.37-1.185-17.692-7.755-25.014-4.983-5.555-12.906-8.989-21.736-9.421-8.088-.4-16.045,1.539-23.5,3.552-7.682,2.074-15.514,4.426-22.877,6.657q-5.346,1.619-10.691,3.269c-37.138,11.41-75.54,23.21-114.38,17.208-1.073-.165-2.151-.345-3.231-.524a75.079,75.079,0,0,0-12.137-1.348" transform="translate(-96.404 -100.652)"/><path class="b" d="M567.656,847.988c-.123,0-.245,0-.368,0-8.69-.147-17.54-5.437-23.675-14.151a61.293,61.293,0,0,1-6.926-13.309c-1.424-3.634-2.753-7.658-4.313-13.046C529,795.7,525.837,785.24,522.7,775.5a817.776,817.776,0,0,0-63.537-146.575c-7.555-13.587-17.9-32.2-12.429-48.974a57.628,57.628,0,0,1,4.606-9.773,76.607,76.607,0,0,0,3.61-7.131c6.176-14.692,2.4-31.505-1.57-44.511-2.375-7.774-4.595-17.607-.66-24.7,2.134-3.851,5.943-6.537,11.32-7.979,7.4-2,15.277-.656,22.892.644,1.274.219,2.545.436,3.81.637,45.642,7.271,90.755-6.753,134.385-20.317q6.06-1.884,12.117-3.751c7.946-2.461,17.354-5.331,26.885-7.952,8.819-2.426,18.231-4.76,27.852-4.328,10.589.477,20.1,4.58,26.093,11.258,7.884,8.787,9.387,21.128,9.26,29.933a162.787,162.787,0,0,1-1.33,16.246c-.57,4.922-1.16,10.01-1.3,15.057a91.061,91.061,0,0,0,19.57,58.324c2.512,3.159,5.315,6.259,8.027,9.257,7.52,8.315,15.295,16.912,17.878,27.838,2.163,9.138.239,18.505-1.678,25.645-10.489,38.636-36.982,69.752-56,89.8-27.119,28.8-57.883,54.4-87.635,79.154-12.639,10.517-25.709,21.394-40.43,29.414-4.807,2.618-10.548,5.281-16.784,5.281m-95.3-362.439a31,31,0,0,0-8.129.994c-5.182,1.39-8.843,3.959-10.879,7.634-3.8,6.862-1.615,16.51.719,24.147,4.01,13.122,7.81,30.094,1.545,45a77.174,77.174,0,0,1-3.643,7.2,57.028,57.028,0,0,0-4.552,9.649c-5.377,16.481,4.883,34.932,12.376,48.4a818.648,818.648,0,0,1,63.593,146.7c3.136,9.749,6.3,20.217,9.677,32,1.553,5.366,2.876,9.37,4.291,12.983a60.657,60.657,0,0,0,6.844,13.158c6,8.528,14.639,13.7,23.1,13.847,6.2.122,11.977-2.566,16.8-5.191,14.66-7.986,27.7-18.839,40.314-29.335,29.735-24.745,60.481-50.33,87.573-79.1,39.592-41.736,50.823-71.064,55.825-89.493,1.9-7.056,3.8-16.309,1.674-25.292-2.542-10.746-10.254-19.275-17.712-27.521-2.72-3.007-5.531-6.116-8.058-9.292a91.79,91.79,0,0,1-19.726-58.791c.143-5.078.734-10.183,1.307-15.12a161.526,161.526,0,0,0,1.325-16.174c.126-8.677-1.346-20.829-9.076-29.443-5.866-6.536-15.193-10.554-25.591-11.022-9.525-.421-18.865,1.891-27.63,4.3-9.521,2.618-18.922,5.487-26.864,7.947q-6.058,1.858-12.115,3.75c-43.708,13.587-88.9,27.637-134.711,20.34-1.267-.2-2.541-.419-3.819-.638a86.913,86.913,0,0,0-14.455-1.654" transform="translate(-90.567 -91.692)"/><path class="b" d="M536.906,892.416c-.307,0-.612,0-.921-.014-12.149-.334-24.445-8.275-32.891-21.242a89.557,89.557,0,0,1-9.208-19.334c-2.1-5.9-3.852-12.046-5.55-17.988l-.151-.529c-4.432-15.544-9.188-31.032-14.137-46.036a1150.749,1150.749,0,0,0-94.069-211.039c-11.194-19.546-26.524-46.314-18.75-70.5a81.606,81.606,0,0,1,6.578-14.056,109.116,109.116,0,0,0,5.188-10.311l.331.138-.331-.138c8.887-21.323,3.185-45.691-2.774-64.54-3.55-11.225-6.9-25.422-1.269-35.651,3.043-5.526,8.522-9.365,16.284-11.412,10.684-2.823,22.063-.775,33.067,1.205,1.858.334,3.71.668,5.555.977,67.384,11.3,133.712-9.934,197.855-30.471q6.949-2.225,13.891-4.435c11.512-3.663,25.13-7.932,38.846-11.828,12.746-3.62,26.349-7.125,40.244-6.58,15.292.582,29.02,6.436,37.663,16.06,11.377,12.669,13.471,30.5,13.226,43.222a234.2,234.2,0,0,1-2.022,23.376c-.863,7.162-1.756,14.568-1.983,21.917a129.849,129.849,0,0,0,28.611,84.37c3.7,4.573,7.824,9.055,11.814,13.392,11,11.955,22.381,24.316,26.212,40.06,3.2,13.17.468,26.709-2.273,37.033C811.169,653.581,773.468,698.3,746.4,727.112c-39.231,41.8-83.845,79.01-126.989,115-18.319,15.279-37.262,31.078-58.6,42.7-6.945,3.783-15.182,7.611-23.9,7.611M396.76,369.094a44.245,44.245,0,0,0-11.342,1.36c-7.565,1.995-12.894,5.717-15.839,11.065-5.563,10.1-1.909,24.863,1.324,35.087,6,18.965,11.73,43.5,2.753,65.032a109.48,109.48,0,0,1-5.221,10.38,81.034,81.034,0,0,0-6.524,13.93c-7.677,23.889,7.562,50.5,18.69,69.929A1151.591,1151.591,0,0,1,474.73,787.049c4.951,15.013,9.709,30.511,14.145,46.063l.151.529c1.694,5.931,3.446,12.066,5.535,17.945a88.845,88.845,0,0,0,9.134,19.181c8.318,12.771,20.4,20.59,32.312,20.917,8.87.278,17.352-3.64,24.459-7.51,21.274-11.585,40.189-27.361,58.482-42.618,43.128-35.972,87.725-73.168,126.926-114.936,56.417-60.035,72.321-102.23,79.377-128.746,2.719-10.243,5.434-23.668,2.269-36.68-3.786-15.564-15.1-27.857-26.042-39.745-4-4.344-8.133-8.836-11.843-13.425a130.581,130.581,0,0,1-28.771-84.843c.229-7.379,1.123-14.8,1.987-21.98a233.488,233.488,0,0,0,2.017-23.3c.244-12.6-1.821-30.234-13.042-42.73-8.514-9.479-22.057-15.246-37.157-15.823-13.781-.518-27.33,2.95-40.021,6.554-13.707,3.894-27.318,8.162-38.825,11.822q-6.941,2.2-13.889,4.435c-51.838,16.6-105.112,33.651-159.251,33.653a234.656,234.656,0,0,1-38.942-3.158c-1.847-.31-3.7-.644-5.563-.978-7.085-1.274-14.329-2.577-21.416-2.577" transform="translate(-73.054 -64.806)"/><path class="b" d="M439.3,937.371c-4.243,0-8.155-.172-11.831-.429a232.436,232.436,0,0,1-43.425-7.272c-7.514-1.993-16.119-4.618-23.157-10.555-12.1-10.208-14.819-27.54-17.218-42.832-3.344-21.307-7.923-42.673-12.351-63.336-1.844-8.609-3.753-17.512-5.539-26.261C319.117,754,311.56,716.964,298.777,681.44c-14.241-39.516-35.263-77.365-53.81-110.757-15.228-27.419-29.425-56.987-30.182-87.4-.769-30.891,11.518-58.16,24.526-87.029,3.933-8.729,8-17.756,11.646-26.836,2.483-6.182,4.47-11.639,6.076-16.684,1.291-4.057,2.513-8.221,3.7-12.248,4.406-15.007,8.961-30.526,18.071-43.823,11.181-16.32,18.258-31.963,24.5-45.764,2.135-4.72,4.153-9.18,6.173-13.295,7.272-14.809,16.663-29.452,44.048-31.646,14.97-1.2,30.462,2.467,45.439,6.014l3.589.847c34.255,8.025,70.94,14.935,112.152,21.122,37.911,5.691,68.148,5.428,104.371-.9,27.921-4.881,55.892-12.568,82.941-20q8.8-2.42,17.574-4.8c6.171-1.667,12.78-3.423,19.288-4.961a144.676,144.676,0,0,1,32.157-4.319c21.287-.19,38.454,6.548,48.324,19.018,14.983,18.928,8.159,45.206,2.757,59.185-2.122,5.492-4.631,11.025-7.057,16.377-5.94,13.1-12.082,26.646-13.52,41.442-3.268,34.045,18.183,64.391,38.93,93.737,3.886,5.5,7.906,11.182,11.611,16.7,7.438,11.161,12.026,19.946,14.878,28.486,5.206,15.592,5.6,30.791,1.275,49.283-1.589,6.846-3.772,13.629-6.081,20.809-2.789,8.668-5.672,17.63-7.444,26.774-2.585,13.343-3.151,26.315-3.7,38.862-.491,11.257-.956,21.891-2.756,32.755-5.754,34.448-25.829,70.592-56.526,101.772-29,29.682-64.482,56.153-115.061,85.828-5.257,3.093-10.628,6.193-15.821,9.191-9.156,5.284-18.625,10.749-27.823,16.38-6.285,3.843-12.458,7.775-18.35,11.686-7.348,4.871-14.694,10.013-21.8,14.985-9.362,6.553-19.042,13.329-28.83,19.557-8.505,5.414-17.752,9.29-26.478,12.673-48.349,18.739-77.329,22.921-98.26,22.921M279.095,296.862l.3.2c-9.045,13.2-13.585,28.666-17.974,43.621-1.184,4.03-2.406,8.2-3.7,12.263-1.611,5.061-3.6,10.535-6.093,16.734-3.651,9.094-7.722,18.127-11.658,26.863-12.974,28.793-25.227,55.988-24.463,86.717.753,30.262,14.908,59.732,30.092,87.072,18.56,33.417,39.6,71.292,53.859,110.863,12.8,35.572,20.361,72.639,27.033,105.344,1.785,8.746,3.693,17.646,5.538,26.255,4.43,20.672,9.011,42.048,12.357,63.375,2.38,15.167,5.077,32.358,16.972,42.394,6.924,5.842,15.44,8.437,22.879,10.41a231.633,231.633,0,0,0,43.291,7.25q5.409.379,10.814.373c35.032,0,69.442-11.373,98.967-22.818,8.692-3.369,17.9-7.229,26.353-12.61,9.776-6.22,19.449-12.991,28.8-19.538,7.108-4.975,14.459-10.12,21.813-15,5.9-3.916,12.08-7.853,18.373-11.7,9.2-5.635,18.677-11.1,27.838-16.389,5.193-3,10.563-6.1,15.816-9.187,50.522-29.643,85.963-56.078,114.913-85.713,30.6-31.077,50.6-67.084,56.33-101.387,1.794-10.822,2.257-21.434,2.747-32.67.549-12.572,1.117-25.571,3.711-38.967,1.78-9.185,4.669-18.169,7.465-26.857,2.305-7.166,4.483-13.934,6.065-20.752,4.292-18.355,3.9-33.435-1.256-48.893-2.831-8.477-7.394-17.21-14.794-28.314-3.7-5.512-7.716-11.193-11.6-16.687-20.822-29.453-42.353-59.91-39.059-94.221,1.449-14.914,7.616-28.516,13.581-41.669,2.422-5.342,4.926-10.866,7.041-16.338,5.346-13.836,12.111-39.833-2.649-58.482-9.73-12.293-26.679-18.963-47.757-18.746a144.01,144.01,0,0,0-32,4.3c-6.5,1.537-13.1,3.291-19.266,4.957q-8.775,2.371-17.572,4.8c-27.065,7.439-55.052,15.132-83.008,20.019-36.3,6.347-66.608,6.609-104.6.906-41.231-6.19-77.935-13.1-112.209-21.132l-3.591-.848c-14.925-3.534-30.35-7.183-45.216-6-27.01,2.165-36.281,16.624-43.462,31.249-2.016,4.1-4.031,8.558-6.165,13.274-6.257,13.828-13.348,29.5-24.565,45.873Z" transform="translate(-43.687 -40.47)"/><path class="b" d="M327.249,985.345c-11.949,0-23.859-.545-35.659-1.636-14.091-1.3-28.74-3.584-40.407-11.475-20.86-14.044-25.389-41.378-28-65.895-1.087-10.209-2.252-20.566-3.378-30.581-2.391-21.247-4.862-43.217-6.692-64.79q-.489-5.751-.957-11.507c-2.758-33.521-5.609-68.183-15.093-101.372-10.96-38.3-30.807-74.5-50-109.5q-2.036-3.712-4.066-7.422c-10.529-19.25-22.429-42.164-30.863-66.157-8.91-25.348-12.658-48.224-11.456-69.932,2.245-41.939,23.116-80,43.3-116.81,10.021-18.275,20.383-37.172,28.49-56.492a235.081,235.081,0,0,0,9.227-25.79c2.167-7.488,4-15.277,5.778-22.811,5.307-22.519,10.8-45.806,25.862-64.3l.278.226-.278-.226c17.337-21.285,38.246-38.017,60.464-48.387,17.61-8.219,38.034-15.608,68.021-14.024,18.725.989,37.27,5.821,54.66,10.685,36.445,10.183,74.231,22.839,122.514,41.035,40.538,15.277,71.085,22.778,116.331,18.687,37.963-3.432,75.665-13.229,112.126-22.7l1.69-.44c6.7-1.741,14.3-3.715,21.645-5.519a179.033,179.033,0,0,1,35.99-5.467c25.118-.96,43.887,6.021,54.273,20.2,6.888,9.485,9.2,21.139,6.858,34.643-2.4,13.872-9.171,26.47-14.428,34.6-3.05,4.715-6.4,9.462-9.648,14.053-11.031,15.613-22.438,31.757-25.017,50.68-4.453,32.853,18.262,61.3,40.229,88.808,9.558,11.969,19.441,24.345,26.857,36.847,7.545,12.779,11.56,24.546,12.275,35.972,1.3,20.791-7.756,38.685-18.827,58.259q-1.466,2.6-2.96,5.206c-8.663,15.181-17.623,30.88-20.2,48.341-2.654,17.574,1.045,34.646,4.621,51.157,2.148,9.912,4.368,20.161,5.171,30.372,3.112,39.9-16.106,84.459-51.4,119.2C784.044,791.294,743.881,816,688.179,838.822c-5.179,2.129-10.473,4.235-15.594,6.272-10.893,4.335-22.157,8.817-32.991,13.772-7.345,3.354-13.931,6.663-20.136,10.119-15.967,8.879-30.971,19.709-45.482,30.183q-3.571,2.577-7.146,5.147c-8.324,5.972-16.935,11.181-25.76,16.433C479.55,957.359,422.287,977.865,366,983.435c-12.894,1.272-25.848,1.909-38.755,1.909m6.536-888.384c-25.548,0-43.769,6.745-59.682,14.172-22.121,10.324-42.941,26.988-60.212,48.189-14.963,18.37-20.431,41.575-25.72,64.014-1.777,7.542-3.615,15.34-5.786,22.846a235.953,235.953,0,0,1-9.255,25.868c-8.122,19.355-18.493,38.268-28.523,56.56-20.146,36.738-40.978,74.728-43.213,116.5-2.583,46.681,18.77,92.81,42.232,135.705q2.03,3.71,4.066,7.423c19.213,35.039,39.081,71.272,50.062,109.649,9.5,33.258,12.358,67.956,15.119,101.512q.473,5.753.956,11.5c1.83,21.562,4.3,43.528,6.691,64.77,1.126,10.018,2.293,20.375,3.378,30.585,2.592,24.357,7.082,51.5,27.686,65.377,11.534,7.8,26.075,10.068,40.071,11.355a391.034,391.034,0,0,0,74.279-.273c56.175-5.558,113.342-26.031,174.768-62.589,8.812-5.244,17.408-10.444,25.709-16.4q3.576-2.564,7.145-5.146c14.526-10.486,29.548-21.328,45.552-30.228,6.222-3.464,12.825-6.782,20.187-10.144,10.85-4.963,22.123-9.449,33.024-13.786,5.119-2.037,10.411-4.143,15.587-6.269,55.612-22.787,95.7-47.443,126.163-77.595,35.15-34.6,54.288-78.946,51.194-118.635-.8-10.161-3.016-20.387-5.158-30.276-3.589-16.573-7.3-33.711-4.629-51.414,2.6-17.594,11.591-33.352,20.288-48.592q1.488-2.607,2.958-5.2c11.014-19.473,20.026-37.267,18.736-57.861-.709-11.311-4.692-22.973-12.176-35.652-7.391-12.458-17.258-24.815-26.8-36.764-22.061-27.628-44.874-56.195-40.38-89.352,2.6-19.1,14.061-35.314,25.142-51,3.24-4.585,6.59-9.325,9.631-14.028,24.361-37.654,13.426-60.4,7.593-68.427C847.537,135.7,824.144,132.8,806.8,133.456a178.348,178.348,0,0,0-35.846,5.448c-7.344,1.8-14.937,3.775-21.636,5.515l-1.69.439c-36.489,9.481-74.22,19.284-112.24,22.721-45.387,4.106-76.013-3.416-116.65-18.73-48.263-18.187-86.03-30.837-122.453-41.015-17.352-4.854-35.854-9.675-54.5-10.66q-4.115-.217-8-.214" transform="translate(-20.436 -19.578)"/><path class="b" d="M259.375,1015.683q-11.036,0-22.005-.509c-17.5-.809-35.7-2.822-50.253-12-25.552-16.1-31.514-47.513-34.151-79.065-3.082-36.881-4.913-69.156-5.6-98.669q-.178-7.769-.306-15.554c-.609-33.631-1.237-68.407-9.482-101.69-9.656-38.951-29.619-75.456-48.926-110.757q-2.651-4.849-5.292-9.693c-26.265-48.461-53.9-105.088-49.254-163.9C37.938,374.936,63.626,330.79,88.468,288.1c13.443-23.1,27.343-46.989,37.781-71.529a254.341,254.341,0,0,0,11.028-31c2.622-9.348,4.727-19.137,6.761-28.6,5.8-26.983,11.8-54.884,30.518-76.243l.269.236-.269-.236c22.474-25.645,54.529-37.115,77.463-42.222a240.335,240.335,0,0,1,81.74-4.02c17.289,2.081,35.68,6.171,57.88,12.868,38.33,11.559,77.939,27.724,128.426,52.415,39.2,19.169,70.973,32.532,123.175,29.88,40.162-2.143,78.749-11.317,121.417-22.19l5.168-1.319q8.927-2.277,17.826-4.516a202.488,202.488,0,0,1,38.18-6.123c27.535-1.423,46.936,5.6,57.668,20.875,7.33,10.461,9.2,23.218,5.564,37.919-3.761,15.209-12.426,28.544-19.032,37.054-3.5,4.511-7.292,9.051-10.956,13.442-14.023,16.8-28.522,34.178-31.763,55.251-5.183,33.759,19.432,62.461,43.238,90.22,12.181,14.2,24.776,28.892,33.3,44.13,7.868,14.084,11.393,27.248,10.779,40.24-1.025,23.175-14.76,42.035-29.3,62l-1,1.378c-12.749,17.526-25.932,35.649-28.668,56.979-2.486,19.2,3.875,37.889,10.027,55.96,3.461,10.17,7.04,20.685,9.042,31.238,4.151,21.914,1.48,45.792-7.724,69.054-8.644,21.849-22.734,42.63-40.746,60.1-31.189,30.311-74.653,54.232-132.873,73.127-5.3,1.724-10.725,3.412-15.969,5.043-11.721,3.648-23.84,7.42-35.439,11.845a225.83,225.83,0,0,0-21.157,9.224c-20.2,10.152-38.815,24.363-53.771,35.782-8.405,6.419-16.937,12.67-25.357,18.582-64.395,45.206-137.772,74.824-212.2,85.654a487.863,487.863,0,0,1-70.117,5.09M304.434,33.418a241.507,241.507,0,0,0-52.259,5.788C229.346,44.289,197.441,55.7,175.1,81.2c-18.6,21.219-24.575,49.028-30.357,75.922-2.036,9.477-4.143,19.276-6.771,28.645a255.353,255.353,0,0,1-11.059,31.083c-10.455,24.583-24.368,48.49-37.82,71.61-24.8,42.622-50.448,86.695-54.27,135.438-4.627,58.62,22.954,115.133,49.169,163.5q2.637,4.843,5.292,9.692c19.329,35.342,39.314,71.887,48.992,110.928,8.264,33.362,8.893,68.179,9.5,101.85q.14,7.78.307,15.549c.687,29.5,2.519,61.76,5.6,98.627,2.622,31.367,8.534,62.589,33.818,78.517,14.412,9.091,32.5,11.089,49.9,11.894a484.782,484.782,0,0,0,91.987-4.575c74.319-10.813,147.591-40.389,211.893-85.531,8.412-5.906,16.937-12.152,25.335-18.564,14.979-11.437,33.622-25.671,53.884-35.854a226.849,226.849,0,0,1,21.224-9.254c11.62-4.433,23.751-8.207,35.482-11.858,5.241-1.631,10.662-3.319,15.96-5.04,58.114-18.861,101.485-42.726,132.594-72.96,17.94-17.4,31.972-38.09,40.579-59.846,9.153-23.136,11.812-46.876,7.688-68.656-1.993-10.5-5.565-20.994-9.019-31.14-6.178-18.148-12.566-36.915-10.057-56.282,2.759-21.511,16-39.71,28.8-57.309l1-1.378c14.475-19.877,28.149-38.651,29.166-61.612.606-12.856-2.89-25.893-10.69-39.857-8.491-15.176-21.064-29.836-33.221-44.013-23.912-27.881-48.635-56.711-43.4-90.8,3.272-21.269,17.837-38.723,31.921-55.6,3.659-4.386,7.445-8.922,10.939-13.423,31.888-41.074,18.355-67.117,13.449-74.122-10.582-15.055-29.79-21.983-57.046-20.571a201.9,201.9,0,0,0-38.043,6.1q-8.9,2.22-17.823,4.516l-5.169,1.318c-42.7,10.883-81.327,20.066-121.557,22.212q-6.688.341-12.953.337c-44.9,0-74.624-12.708-110.572-30.288C469.3,75.739,429.725,59.587,391.433,48.039c-22.159-6.684-40.512-10.765-57.758-12.842a244.1,244.1,0,0,0-29.241-1.779" transform="translate(-6.833 -6.652)"/><path class="b" d="M225.723,1031.4q-7.8,0-15.6-.229c-19.205-.567-39.182-2.445-55.176-12.268-28.567-17.543-34.848-53.141-37.225-85.648-2.43-33.239-3.563-66.991-3.367-100.319.034-5.7.107-11.5.176-17.115.421-33.839.857-68.831-6.834-102.311-8.977-39.073-28.867-75.553-48.1-110.832q-3.105-5.695-6.191-11.382C24.955,538.738-4.93,477.321.685,413.489,5.3,361.04,33.417,313.794,60.607,268.1c21.306-35.8,43.337-72.818,54.329-112.473,2.846-10.269,5.073-21.057,7.227-31.489,6.038-29.24,12.282-59.474,32.87-82.222,23.129-25.555,59.509-35.385,85.955-39.133,100.917-14.3,197.912,28.9,279.479,73.039,39.443,21.346,69.629,35.633,117.66,35.635,2.913,0,5.886-.052,8.937-.159,46.051-1.611,91.473-13.143,135.4-24.295q6.756-1.713,13.492-3.414c21.161-5.323,39.641-7.485,54.918-6.416,20.3,1.415,35.01,8.54,43.724,21.177,7.551,10.951,9.205,24.26,4.917,39.557-3.474,12.393-11.051,25.987-21.335,38.281-3.718,4.444-7.718,8.917-11.586,13.242-15.527,17.364-31.585,35.319-35.157,57.435-5.554,34.37,20.12,63.342,44.946,91.36,24.312,27.436,49.451,55.806,46.35,89.7-2.182,23.857-18.266,43.846-33.82,63.177-15.181,18.868-30.879,38.378-33.641,61.463-2.387,19.946,5.315,39.37,12.764,58.157,4.11,10.367,8.36,21.087,10.942,31.879,10.653,44.543-7.357,95.934-47,134.121-31.729,30.56-76.251,53.725-136.11,70.817-5.38,1.536-10.884,3.03-16.207,4.474-19.6,5.32-39.872,10.821-58.28,19.612-22.312,10.654-41.838,26.1-60.721,41.045-6.121,4.843-12.451,9.851-18.781,14.62-46.11,34.744-98.582,61.469-155.958,79.433A535.231,535.231,0,0,1,225.723,1031.4M281.038.716A284.3,284.3,0,0,0,241.091,3.5c-26.33,3.732-62.54,13.51-85.525,38.9-20.458,22.6-26.682,52.741-32.7,81.887-2.156,10.443-4.387,21.242-7.239,31.535-11.017,39.749-33.074,76.809-54.4,112.649C34.073,314.092,6,361.266,1.4,413.551c-5.6,63.634,24.235,124.937,52.637,177.4q3.079,5.688,6.19,11.38C79.486,637.656,99.4,674.18,108.4,713.349c7.711,33.563,7.274,68.6,6.853,102.481-.07,5.612-.143,11.415-.176,17.11-.2,33.309.936,67.042,3.365,100.261,2.364,32.327,8.594,67.716,36.885,85.09,15.85,9.735,35.716,11.6,54.822,12.161A533.827,533.827,0,0,0,385.7,1006.048c57.3-17.94,109.7-44.628,155.741-79.322,6.323-4.765,12.649-9.77,18.767-14.611,18.914-14.965,38.473-30.44,60.856-41.129,18.468-8.818,38.769-14.328,58.4-19.656,5.32-1.444,10.822-2.937,16.2-4.472,59.743-17.058,104.166-40.167,135.808-70.645,39.463-38.01,57.4-89.14,46.8-133.437-2.57-10.742-6.81-21.437-10.912-31.782-7.481-18.868-15.218-38.38-12.81-58.507,2.787-23.288,18.551-42.879,33.8-61.826,15.487-19.248,31.5-39.151,33.665-62.793,3.072-33.59-21.962-61.842-46.173-89.164-24.938-28.144-50.726-57.245-45.118-91.951,3.607-22.322,19.735-40.357,35.331-57.8,3.864-4.321,7.86-8.789,11.571-13.225,10.22-12.216,17.747-25.716,21.194-38.014,4.228-15.081,2.607-28.188-4.816-38.955-8.585-12.449-23.114-19.47-43.184-20.869-15.208-1.059-33.607,1.093-54.695,6.4l-.087-.348.087.348Q789.4,85.983,782.639,87.7c-43.961,11.161-89.421,22.7-135.549,24.315-53.523,1.882-85.024-12.865-126.962-35.562C449.5,38.233,367.291.716,281.038.716" transform="translate(0 0.001)"/></g></g></g></svg>
